<?xml version="1.0" encoding="utf-8"?>
<!-- Generator: Adobe Illustrator 15.0.2, SVG Export Plug-In . SVG Version: 6.00 Build 0)  -->
<!DOCTYPE svg PUBLIC "-//W3C//DTD SVG 1.1//EN" "http://www.w3.org/Graphics/SVG/1.1/DTD/svg11.dtd">
<svg version="1.1" id="Layer_1" xmlns="http://www.w3.org/2000/svg" xmlns:xlink="http://www.w3.org/1999/xlink" x="0px" y="0px"
	 width="608.177px" height="69.228px" viewBox="0 0 608.177 69.228" enable-background="new 0 0 608.177 69.228"
	 xml:space="preserve">
<g>
	<g>
		<path fill="#FFFFFF" d="M137.73,18.25h4.3v37.002h-4.3V18.25z"/>
		<path fill="#FFFFFF" d="M148.43,42.051c0-9.601,6.4-13.75,11.951-13.75c6.25,0,11.001,4.399,11.001,13.95v0.9H152.73
			c0.149,5.951,3.6,9.15,7.95,9.15c3.801,0,5.95-1.549,7.95-4.299l2.501,2.199c-2.45,3.5-5.801,5.6-10.751,5.6
			C154.13,55.801,148.43,51.252,148.43,42.051z M167.281,39.801c-0.351-4.701-2.601-7.901-6.95-7.901c-3.551,0-6.9,2.45-7.501,7.901
			H167.281z"/>
		<path fill="#FFFFFF" d="M175.48,49.002c0-5.352,4.55-9.152,17.651-11.002v-1.199c0-3.3-1.75-4.901-5.001-4.901
			c-4,0-6.95,1.75-9.55,4l-2.251-2.7c3.051-2.8,7.001-4.899,12.251-4.899c6.301,0,8.801,3.3,8.801,8.799v11.652
			c0,3.199,0.2,5.15,0.75,6.5h-4.4c-0.35-1.1-0.6-2.15-0.6-3.65c-2.95,2.75-6.251,4.051-10.201,4.051
			C178.381,55.652,175.48,53.252,175.48,49.002z M193.132,48.4V41c-10.051,1.602-13.401,4.051-13.401,7.352
			c0,2.549,1.7,3.9,4.45,3.9C187.681,52.252,190.682,50.801,193.132,48.4z"/>
		<path fill="#FFFFFF" d="M204.729,28.85h4.351v3.95c2.3-2.25,5.601-4.5,9.9-4.5c5.051,0,7.801,2.899,7.801,7.901v19.051h-4.3V37.15
			c0-3.5-1.501-5.15-4.851-5.15c-3.15,0-5.801,1.649-8.551,4.25v19.002h-4.351V28.85z"/>
		<path fill="#FFFFFF" d="M231.429,51.701l3.2-4.5c2.4,2.1,6.001,3.449,9.251,3.449c2.5,0,4.25-0.85,4.25-2.6
			c0-1.85-1.399-2.551-5.05-3.199c-5.051-0.9-10.451-2.102-10.451-8.352c0-5.35,4.4-8.45,10.351-8.45
			c5.451,0,8.751,1.399,11.701,3.75l-3.15,4.549c-2.7-1.849-5.351-2.9-7.851-2.9c-2.3,0-3.6,0.9-3.6,2.351
			c0,1.6,1.45,2.25,4.75,2.85c5.25,0.9,10.801,2.1,10.801,8.15c0,6.451-5.601,9-11.751,9
			C238.029,55.801,234.129,54.002,231.429,51.701z"/>
		<path fill="#FFFFFF" d="M261.729,47.752V34.451h-4.45V28.6h4.45v-9.15h8.001v9.15h6.85v5.851h-6.85V46
			c0,2.852,0.8,3.752,3.7,3.752c0.899,0,2.1-0.102,2.649-0.301v5.75c-0.6,0.15-3.55,0.4-5.3,0.4
			C262.88,55.602,261.729,52.752,261.729,47.752z"/>
		<path fill="#FFFFFF" d="M279.179,48.451c0-6.15,5.2-9.551,16.901-10.5v-0.65c0-1.951-1-3.201-3.601-3.201c-3.4,0-6.3,1.4-8.75,3.3
			l-3.4-4.6c2.65-2.4,6.65-4.75,13.301-4.75c7.301,0,10.301,3.6,10.301,10.45v10.252c0,3.199,0.2,5.15,0.75,6.5h-8.001
			c-0.35-1.1-0.6-2.4-0.6-3.9c-2.45,2.75-5.351,4.301-9.301,4.301C282.679,55.652,279.179,53.002,279.179,48.451z M296.08,47.301
			v-4.949c-6.351,0.648-9.051,2.25-9.051,4.699c0,1.701,1.2,2.551,2.95,2.551C292.78,49.602,294.729,48.65,296.08,47.301z"/>
		<path fill="#FFFFFF" d="M309.779,28.6h8.051v4.45h0.049c1.451-2.25,4.002-5,9.002-5h0.25l-0.102,7.15
			c-0.299-0.051-1.6-0.15-2.1-0.15c-3.199,0-5.6,1.7-7.1,3.651v16.551h-8.051V28.6z"/>
		<path fill="#FFFFFF" d="M333.078,47.752V34.451h-4.449V28.6h4.449v-9.15h8.002v9.15h6.85v5.851h-6.85V46
			c0,2.852,0.799,3.752,3.699,3.752c0.9,0,2.1-0.102,2.65-0.301v5.75c-0.6,0.15-3.551,0.4-5.301,0.4
			C334.228,55.602,333.078,52.752,333.078,47.752z"/>
		<path fill="#FFFFFF" d="M352.027,48.051V28.6h8.051v17.101c0,2.4,0.9,3.699,3.15,3.699c2.15,0,4-1.148,5.801-2.699V28.6h8.051
			v26.652h-8.051v-4.15c-1.6,2.049-4.551,4.699-9.201,4.699C355.279,55.801,352.027,53.551,352.027,48.051z"/>
		<path fill="#FFFFFF" d="M383.177,28.6h8.051v4.05c1.75-2.4,4.25-4.6,8.199-4.6c6.051,0,10.252,4.649,10.252,13.85
			c0,9.201-4.25,13.752-10.352,13.752c-3.6,0-6.1-1.301-8.1-3.551v13.15h-8.051V28.6z M401.628,41.951c0-4.451-1.551-7.25-5.15-7.25
			c-2.051,0-3.9,1.25-5.25,2.6v9.85c1.75,1.65,3.199,2.451,5.35,2.451C399.927,49.602,401.628,46.801,401.628,41.951z"/>
		<path fill="#FFFFFF" d="M415.126,28.85h4.301v4c2.5-2.5,5.551-4.55,9.502-4.55c4.449,0,6.35,1.899,7.25,4.649
			c2.549-2.5,5.801-4.649,9.75-4.649c5.4,0,7.65,3.149,7.65,7.901v19.051h-4.301V37.15c0-3.5-1.148-5.15-4.6-5.15
			c-2.949,0-5.4,1.649-8.15,4.25v19.002h-4.301V37.15c0-3.5-1.15-5.15-4.6-5.15c-2.9,0-5.4,1.649-8.201,4.25v19.002h-4.301V28.85z"
			/>
		<path fill="#FFFFFF" d="M459.376,49.002c0-5.352,4.551-9.152,17.652-11.002v-1.199c0-3.3-1.75-4.901-5.002-4.901
			c-4,0-6.949,1.75-9.549,4l-2.252-2.7c3.051-2.8,7.002-4.899,12.252-4.899c6.301,0,8.801,3.3,8.801,8.799v11.652
			c0,3.199,0.199,5.15,0.75,6.5h-4.4c-0.35-1.1-0.6-2.15-0.6-3.65c-2.951,2.75-6.252,4.051-10.201,4.051
			C462.277,55.652,459.376,53.252,459.376,49.002z M477.029,48.4V41c-10.051,1.602-13.402,4.051-13.402,7.352
			c0,2.549,1.701,3.9,4.451,3.9C471.578,52.252,474.578,50.801,477.029,48.4z"/>
		<path fill="#FFFFFF" d="M487.126,42.051c0-9.651,6.201-13.75,12.102-13.75c5.949,0,8.75,3.5,10.35,7.4l-3.65,1.5
			c-1.301-3.401-3.35-5.251-6.801-5.251c-3.799,0-7.65,2.65-7.65,10.101c0,6.5,3.102,10.15,7.551,10.15
			c3.35,0,5.4-1.449,7.102-5.301l3.549,1.4c-2.049,4.4-5.1,7.5-10.801,7.5C492.777,55.801,487.126,51.102,487.126,42.051z"/>
		<path fill="#FFFFFF" d="M515.425,18.25h4.352V32.8c2.299-2.25,5.6-4.5,9.9-4.5c5.051,0,7.801,2.899,7.801,7.901v19.051h-4.301
			V37.15c0-3.5-1.5-5.15-4.85-5.15c-3.15,0-5.801,1.649-8.551,4.25v19.002h-4.352V18.25z"/>
		<path fill="#FFFFFF" d="M545.025,19h4.502v4.2h-4.502V19z M545.126,28.85h4.299v26.402h-4.299V28.85z"/>
		<path fill="#FFFFFF" d="M557.326,28.85h4.35v3.95c2.301-2.25,5.602-4.5,9.9-4.5c5.051,0,7.801,2.899,7.801,7.901v19.051h-4.299
			V37.15c0-3.5-1.502-5.15-4.852-5.15c-3.15,0-5.801,1.649-8.551,4.25v19.002h-4.35V28.85z"/>
		<path fill="#FFFFFF" d="M585.226,42.051c0-9.601,6.4-13.75,11.951-13.75c6.25,0,11,4.399,11,13.95v0.9h-18.65
			c0.148,5.951,3.6,9.15,7.949,9.15c3.801,0,5.951-1.549,7.951-4.299l2.5,2.199c-2.449,3.5-5.801,5.6-10.75,5.6
			C590.927,55.801,585.226,51.252,585.226,42.051z M604.078,39.801c-0.35-4.701-2.602-7.901-6.951-7.901
			c-3.551,0-6.9,2.45-7.5,7.901H604.078z"/>
	</g>
</g>
<g>
	<path fill="none" stroke="#FFF200" stroke-width="4" stroke-miterlimit="10" d="M26.888,27.427
		C31.63,11.19,44.456,5.177,55.695,3.065c-6.858-1.254-13.096-1.066-16.499-0.883C-3.472,4.499-3.746,45.101,10.27,56.21
		c4.6,2.998-5.255,10.688-5.255,10.688s11.235,1.787,18.23-2.961c12.235,3.178,23.352,3.336,32.701,1.311
		C34.586,60.718,22.358,44.823,26.888,27.427z"/>
	<path fill="none" stroke="#FFF200" stroke-width="4" stroke-miterlimit="10" d="M101.389,56.159
		C115.403,45.05,115.131,4.448,72.462,2.134c-3.448-0.189-9.804-0.377-16.768,0.932C66.998,5.13,79.989,11.11,84.77,27.478
		c4.513,17.332-7.607,33.174-28.823,37.77c9.301,1.973,20.332,1.789,32.468-1.361c6.994,4.748,18.229,2.961,18.229,2.961
		S96.788,59.157,101.389,56.159z"/>
</g>
<path fill="#FFF200" d="M84.706,27.569C79.923,11.202,66.932,5.222,55.628,3.155C44.389,5.269,31.564,11.28,26.822,27.519
	c-4.53,17.396,7.698,33.289,29.058,37.818C77.096,60.743,89.218,44.901,84.706,27.569z M48.932,55.708l2.904-15.721h-8.373
	l17.26-26.832l-1.75,15.232l8.586-0.193L48.932,55.708z"/>
</svg>
